<svg xmlns="http://www.w3.org/2000/svg" xmlns:xlink="http://www.w3.org/1999/xlink"  width="260"
     zoomAndPan="magnify" viewBox="155 25 202.5 189.999984" height="110" preserveAspectRatio="xMidYMid meet" version="1.0"><defs><g/><clipPath id="b3dc43ab68"><path d="M 106 75.53125 L 136 75.53125 L 136 93 L 106 93 Z M 106 75.53125 " clip-rule="nonzero"/></clipPath><clipPath id="e7a2cf97b2"><path d="M 75.378906 104 L 91 104 L 91 130 L 75.378906 130 Z M 75.378906 104 " clip-rule="nonzero"/></clipPath><clipPath id="6a6d104c58"><path d="M 75.378906 137 L 91 137 L 91 164 L 75.378906 164 Z M 75.378906 137 " clip-rule="nonzero"/></clipPath><clipPath id="660efee7c6"><path d="M 104 154 L 119 154 L 119 179.78125 L 104 179.78125 Z M 104 154 " clip-rule="nonzero"/></clipPath><clipPath id="4e8cb56244"><path d="M 152 104 L 166.878906 104 L 166.878906 130 L 152 130 Z M 152 104 " clip-rule="nonzero"/></clipPath><clipPath id="82176cd950"><path d="M 123 154 L 138 154 L 138 179.78125 L 123 179.78125 Z M 123 154 " clip-rule="nonzero"/></clipPath><clipPath id="4fa8996532"><path d="M 152 137 L 166.878906 137 L 166.878906 164 L 152 164 Z M 152 137 " clip-rule="nonzero"/></clipPath></defs><g clip-path="url(#b3dc43ab68)"><path fill="#f53855" d="M 106.746094 83.988281 L 121.128906 75.53125 L 135.511719 83.988281 L 121.128906 92.328125 Z M 106.746094 83.988281 " fill-opacity="1" fill-rule="evenodd"/></g><path fill="#f53855" d="M 106.746094 100.667969 L 121.128906 109.125 L 135.511719 100.667969 L 121.128906 92.328125 Z M 106.746094 100.667969 " fill-opacity="1" fill-rule="evenodd"/><path fill="#f53855" d="M 92.363281 92.328125 L 106.746094 100.667969 L 92.363281 109.125 L 77.867188 100.667969 Z M 92.363281 92.328125 " fill-opacity="1" fill-rule="evenodd"/><path fill="#f53855" d="M 106.746094 117.464844 L 121.128906 109.125 L 135.511719 117.464844 L 121.128906 125.804688 Z M 106.746094 117.464844 " fill-opacity="1" fill-rule="evenodd"/><path fill="#f53855" d="M 149.894531 109.125 L 135.511719 100.667969 L 149.894531 92.328125 L 164.390625 100.667969 Z M 149.894531 109.125 " fill-opacity="1" fill-rule="evenodd"/><g clip-path="url(#e7a2cf97b2)"><path fill="#f53855" d="M 75.566406 104.492188 L 90.0625 112.832031 L 90.0625 129.628906 L 75.566406 121.285156 Z M 75.566406 104.492188 " fill-opacity="1" fill-rule="evenodd"/></g><path fill="#f53855" d="M 104.445312 137.964844 L 90.0625 129.628906 L 90.0625 146.308594 L 104.445312 154.761719 Z M 104.445312 137.964844 " fill-opacity="1" fill-rule="evenodd"/><g clip-path="url(#6a6d104c58)"><path fill="#f53855" d="M 75.566406 137.964844 L 90.0625 146.308594 L 90.0625 163.101562 L 75.566406 154.761719 Z M 75.566406 137.964844 " fill-opacity="1" fill-rule="evenodd"/></g><g clip-path="url(#660efee7c6)"><path fill="#f53855" d="M 104.445312 154.761719 L 118.828125 163.101562 L 118.828125 179.78125 L 104.445312 171.441406 Z M 104.445312 154.761719 " fill-opacity="1" fill-rule="evenodd"/></g><path fill="#f53855" d="M 118.828125 146.308594 L 104.445312 137.964844 L 104.445312 121.285156 L 118.828125 129.628906 Z M 118.828125 146.308594 " fill-opacity="1" fill-rule="evenodd"/><g clip-path="url(#4e8cb56244)"><path fill="#f53855" d="M 166.691406 121.285156 L 152.195312 129.628906 L 152.195312 112.832031 L 166.691406 104.492188 Z M 166.691406 121.285156 " fill-opacity="1" fill-rule="evenodd"/></g><path fill="#f53855" d="M 152.195312 146.308594 L 137.8125 154.761719 L 137.8125 137.964844 L 152.195312 129.628906 Z M 152.195312 146.308594 " fill-opacity="1" fill-rule="evenodd"/><path fill="#f53855" d="M 137.8125 137.964844 L 123.429688 146.308594 L 123.429688 129.628906 L 137.8125 121.285156 Z M 137.8125 137.964844 " fill-opacity="1" fill-rule="evenodd"/><g clip-path="url(#82176cd950)"><path fill="#f53855" d="M 123.429688 163.101562 L 137.8125 154.761719 L 137.8125 171.441406 L 123.429688 179.78125 Z M 123.429688 163.101562 " fill-opacity="1" fill-rule="evenodd"/></g><g clip-path="url(#4fa8996532)"><path fill="#f53855" d="M 152.195312 146.308594 L 152.195312 163.101562 L 166.691406 154.761719 L 166.691406 137.964844 Z M 152.195312 146.308594 " fill-opacity="1" fill-rule="evenodd"/></g><g fill="#000000" fill-opacity="1"><g transform="translate(175.489253, 124.637747)"><g><path d="M 2.285156 0 L 6.601562 0 L 6.601562 -20.011719 L 2.285156 -20.011719 Z M 2.285156 0 "/></g></g></g><g fill="#000000" fill-opacity="1"><g transform="translate(186.752211, 124.637747)"><g><path d="M 9.832031 -20.011719 L 2.285156 -20.011719 L 2.285156 0 L 9.832031 0 C 15.722656 0 19.980469 -4.203125 19.980469 -10.003906 C 19.980469 -15.808594 15.722656 -20.011719 9.832031 -20.011719 Z M 9.746094 -4.003906 L 6.601562 -4.003906 L 6.601562 -15.980469 L 9.746094 -15.980469 C 13.179688 -15.980469 15.550781 -13.550781 15.550781 -10.003906 C 15.550781 -6.519531 13.179688 -4.003906 9.746094 -4.003906 Z M 9.746094 -4.003906 "/></g></g></g><g fill="#000000" fill-opacity="1"><g transform="translate(210.278242, 124.637747)"><g><path d="M 6.601562 -4.003906 L 6.601562 -8.117188 L 13.550781 -8.117188 L 13.550781 -12.035156 L 6.601562 -12.035156 L 6.601562 -16.007812 L 14.292969 -16.007812 L 14.292969 -20.011719 L 2.285156 -20.011719 L 2.285156 0 L 14.609375 0 L 14.609375 -4.003906 Z M 6.601562 -4.003906 "/></g></g></g><g fill="#000000" fill-opacity="1"><g transform="translate(228.60176, 124.637747)"><g><path d="M 15.550781 0 L 20.269531 0 L 12.179688 -20.011719 L 8.089844 -20.011719 L 0.230469 0 L 4.832031 0 L 6.203125 -3.773438 L 14.148438 -3.773438 Z M 10.175781 -14.722656 L 12.808594 -7.546875 L 7.546875 -7.546875 Z M 10.175781 -14.722656 "/></g></g></g><g fill="#000000" fill-opacity="1"><g transform="translate(251.470322, 124.637747)"><g><path d="M 2.285156 0 L 6.601562 0 L 6.601562 -20.011719 L 2.285156 -20.011719 Z M 2.285156 0 "/></g></g></g><g fill="#000000" fill-opacity="1"><g transform="translate(262.733277, 124.637747)"><g><path d="M 14.949219 -20.011719 L 14.949219 -7.804688 L 6.175781 -20.011719 L 2.285156 -20.011719 L 2.285156 0 L 6.519531 0 L 6.519531 -12.492188 L 15.578125 0 L 19.210938 0 L 19.210938 -20.011719 Z M 14.949219 -20.011719 "/></g></g></g><g fill="#000000" fill-opacity="1"><g transform="translate(286.573744, 124.637747)"><g><path d="M 16.066406 -20.011719 L 0.601562 -20.011719 L 0.601562 -15.980469 L 6.175781 -15.980469 L 6.175781 0 L 10.492188 0 L 10.492188 -15.980469 L 16.066406 -15.980469 Z M 16.066406 -20.011719 "/></g></g></g><g fill="#000000" fill-opacity="1"><g transform="translate(305.611888, 124.637747)"><g><path d="M 10.347656 0.457031 C 15.066406 0.457031 18.609375 -2.828125 18.609375 -7.519531 L 18.609375 -20.011719 L 14.265625 -20.011719 L 14.265625 -7.71875 C 14.265625 -5.230469 12.636719 -3.628906 10.347656 -3.628906 C 8.03125 -3.628906 6.402344 -5.230469 6.402344 -7.71875 L 6.402344 -20.011719 L 2.058594 -20.011719 L 2.058594 -7.519531 C 2.058594 -2.828125 5.601562 0.457031 10.347656 0.457031 Z M 10.347656 0.457031 "/></g></g></g><g fill="#000000" fill-opacity="1"><g transform="translate(328.651959, 124.637747)"><g><path d="M 2.285156 0 L 6.601562 0 L 6.601562 -20.011719 L 2.285156 -20.011719 Z M 2.285156 0 "/></g></g></g><g fill="#000000" fill-opacity="1"><g transform="translate(339.914914, 124.637747)"><g><path d="M 16.066406 -20.011719 L 0.601562 -20.011719 L 0.601562 -15.980469 L 6.175781 -15.980469 L 6.175781 0 L 10.492188 0 L 10.492188 -15.980469 L 16.066406 -15.980469 Z M 16.066406 -20.011719 "/></g></g></g><g fill="#000000" fill-opacity="1"><g transform="translate(358.953069, 124.637747)"><g><path d="M 2.285156 0 L 6.601562 0 L 6.601562 -20.011719 L 2.285156 -20.011719 Z M 2.285156 0 "/></g></g></g><g fill="#000000" fill-opacity="1"><g transform="translate(370.216024, 124.637747)"><g><path d="M 11.777344 0.457031 C 17.867188 0.457031 22.410156 -4.03125 22.410156 -10.003906 C 22.410156 -15.953125 17.867188 -20.4375 11.777344 -20.4375 C 5.660156 -20.4375 1.085938 -15.921875 1.085938 -10.003906 C 1.085938 -4.058594 5.660156 0.457031 11.777344 0.457031 Z M 11.777344 -3.628906 C 8.203125 -3.628906 5.488281 -6.402344 5.488281 -10.003906 C 5.488281 -13.605469 8.203125 -16.351562 11.777344 -16.351562 C 15.351562 -16.351562 18.007812 -13.636719 18.007812 -10.003906 C 18.007812 -6.375 15.351562 -3.628906 11.777344 -3.628906 Z M 11.777344 -3.628906 "/></g></g></g><g fill="#000000" fill-opacity="1"><g transform="translate(396.086052, 124.637747)"><g><path d="M 14.949219 -20.011719 L 14.949219 -7.804688 L 6.175781 -20.011719 L 2.285156 -20.011719 L 2.285156 0 L 6.519531 0 L 6.519531 -12.492188 L 15.578125 0 L 19.210938 0 L 19.210938 -20.011719 Z M 14.949219 -20.011719 "/></g></g></g><g fill="#d1212e" fill-opacity="1"><g transform="translate(199.672614, 148.778916)"><g><path d="M 5.183594 0.152344 C 7.550781 0.152344 9.394531 -1.125 9.394531 -3.375 C 9.394531 -5.863281 7.28125 -6.359375 5.40625 -6.820312 C 3.871094 -7.175781 2.488281 -7.519531 2.488281 -8.8125 C 2.488281 -9.957031 3.582031 -10.636719 5.027344 -10.636719 C 6.476562 -10.636719 7.570312 -9.871094 7.570312 -8.542969 L 9.050781 -8.542969 C 9.050781 -10.707031 7.535156 -12.070312 5.0625 -12.070312 C 2.589844 -12.070312 1.003906 -10.824219 1.003906 -8.761719 C 1.003906 -6.375 3.035156 -5.882812 4.875 -5.457031 C 6.425781 -5.082031 7.84375 -4.757812 7.84375 -3.359375 C 7.84375 -2.097656 6.664062 -1.3125 5.164062 -1.3125 C 3.511719 -1.3125 2.300781 -2.183594 2.300781 -3.664062 L 0.765625 -3.664062 C 0.765625 -1.3125 2.558594 0.152344 5.183594 0.152344 Z M 5.183594 0.152344 "/></g></g></g><g fill="#d1212e" fill-opacity="1"><g transform="translate(210.171822, 148.778916)"><g><path d="M 10.058594 -4.550781 C 10.058594 -7.246094 8.21875 -9.394531 5.421875 -9.394531 C 2.746094 -9.394531 0.734375 -7.332031 0.734375 -4.601562 C 0.734375 -1.859375 2.746094 0.203125 5.421875 0.203125 C 7.414062 0.203125 9.035156 -0.902344 9.820312 -2.796875 L 8.285156 -2.796875 C 7.722656 -1.808594 6.699219 -1.210938 5.421875 -1.210938 C 3.683594 -1.210938 2.402344 -2.335938 2.183594 -4.039062 L 10.023438 -4.039062 C 10.042969 -4.210938 10.058594 -4.382812 10.058594 -4.550781 Z M 5.421875 -8.03125 C 7.058594 -8.03125 8.300781 -7.007812 8.609375 -5.371094 L 2.214844 -5.371094 C 2.507812 -6.972656 3.75 -8.03125 5.421875 -8.03125 Z M 5.421875 -8.03125 "/></g></g></g><g fill="#d1212e" fill-opacity="1"><g transform="translate(221.267569, 148.778916)"><g><path d="M 5.660156 -9.238281 C 4.332031 -9.238281 3.375 -8.746094 2.710938 -7.792969 L 2.488281 -9.207031 L 1.449219 -9.207031 L 1.449219 0 L 2.898438 0 L 2.898438 -4.996094 C 2.898438 -6.785156 3.851562 -7.875 5.539062 -7.875 L 6.476562 -7.875 L 6.476562 -9.238281 Z M 5.660156 -9.238281 "/></g></g></g><g fill="#d1212e" fill-opacity="1"><g transform="translate(228.170525, 148.778916)"><g><path d="M 7.945312 -9.207031 L 4.894531 -1.875 L 1.757812 -9.207031 L 0.253906 -9.207031 L 4.226562 0 L 5.558594 0 L 9.425781 -9.207031 Z M 7.945312 -9.207031 "/></g></g></g><g fill="#d1212e" fill-opacity="1"><g transform="translate(238.243633, 148.778916)"><g><path d="M 1.398438 -10.792969 L 2.964844 -10.792969 L 2.964844 -12.445312 L 1.398438 -12.445312 Z M 1.449219 0 L 2.898438 0 L 2.898438 -9.207031 L 1.449219 -9.207031 Z M 1.449219 0 "/></g></g></g><g fill="#d1212e" fill-opacity="1"><g transform="translate(242.930881, 148.778916)"><g><path d="M 5.507812 0.203125 C 7.6875 0.203125 9.445312 -1.109375 10.007812 -3.136719 L 8.542969 -3.136719 C 7.980469 -1.910156 6.851562 -1.195312 5.507812 -1.195312 C 3.632812 -1.195312 2.199219 -2.675781 2.199219 -4.601562 C 2.199219 -6.511719 3.613281 -7.996094 5.507812 -7.996094 C 6.871094 -7.996094 8.011719 -7.28125 8.542969 -6.085938 L 9.992188 -6.085938 C 9.425781 -8.097656 7.707031 -9.394531 5.507812 -9.394531 C 2.777344 -9.394531 0.714844 -7.347656 0.714844 -4.601562 C 0.714844 -1.859375 2.777344 0.203125 5.507812 0.203125 Z M 5.507812 0.203125 "/></g></g></g><g fill="#d1212e" fill-opacity="1"><g transform="translate(253.822101, 148.778916)"><g><path d="M 10.058594 -4.550781 C 10.058594 -7.246094 8.21875 -9.394531 5.421875 -9.394531 C 2.746094 -9.394531 0.734375 -7.332031 0.734375 -4.601562 C 0.734375 -1.859375 2.746094 0.203125 5.421875 0.203125 C 7.414062 0.203125 9.035156 -0.902344 9.820312 -2.796875 L 8.285156 -2.796875 C 7.722656 -1.808594 6.699219 -1.210938 5.421875 -1.210938 C 3.683594 -1.210938 2.402344 -2.335938 2.183594 -4.039062 L 10.023438 -4.039062 C 10.042969 -4.210938 10.058594 -4.382812 10.058594 -4.550781 Z M 5.421875 -8.03125 C 7.058594 -8.03125 8.300781 -7.007812 8.609375 -5.371094 L 2.214844 -5.371094 C 2.507812 -6.972656 3.75 -8.03125 5.421875 -8.03125 Z M 5.421875 -8.03125 "/></g></g></g><g fill="#d1212e" fill-opacity="1"><g transform="translate(264.917848, 148.778916)"><g><path d="M 4.363281 0.203125 C 6.546875 0.203125 8.011719 -0.902344 8.011719 -2.625 C 8.011719 -4.875 6.136719 -5.183594 4.550781 -5.4375 C 3.324219 -5.625 2.265625 -5.8125 2.265625 -6.785156 C 2.265625 -7.585938 3.050781 -8.097656 4.296875 -8.097656 C 5.59375 -8.097656 6.375 -7.550781 6.425781 -6.546875 L 7.792969 -6.546875 C 7.738281 -8.285156 6.410156 -9.394531 4.332031 -9.394531 C 2.25 -9.394531 0.851562 -8.320312 0.851562 -6.734375 C 0.851562 -4.652344 2.625 -4.332031 4.195312 -4.058594 C 5.4375 -3.851562 6.582031 -3.648438 6.582031 -2.558594 C 6.582031 -1.671875 5.675781 -1.125 4.414062 -1.125 C 3.121094 -1.125 2.183594 -1.722656 2.113281 -2.8125 L 0.683594 -2.8125 C 0.765625 -0.953125 2.183594 0.203125 4.363281 0.203125 Z M 4.363281 0.203125 "/></g></g></g><g fill="#d1212e" fill-opacity="1"><g transform="translate(273.985368, 148.778916)"><g/></g></g><g fill="#d1212e" fill-opacity="1"><g transform="translate(278.774875, 148.778916)"><g><path d="M 9.105469 -11.933594 L 0.359375 -11.933594 L 0.359375 -10.519531 L 3.988281 -10.519531 L 3.988281 0 L 5.472656 0 L 5.472656 -10.519531 L 9.105469 -10.519531 Z M 9.105469 -11.933594 "/></g></g></g><g fill="#d1212e" fill-opacity="1"><g transform="translate(288.575284, 148.778916)"><g><path d="M 10.058594 -4.550781 C 10.058594 -7.246094 8.21875 -9.394531 5.421875 -9.394531 C 2.746094 -9.394531 0.734375 -7.332031 0.734375 -4.601562 C 0.734375 -1.859375 2.746094 0.203125 5.421875 0.203125 C 7.414062 0.203125 9.035156 -0.902344 9.820312 -2.796875 L 8.285156 -2.796875 C 7.722656 -1.808594 6.699219 -1.210938 5.421875 -1.210938 C 3.683594 -1.210938 2.402344 -2.335938 2.183594 -4.039062 L 10.023438 -4.039062 C 10.042969 -4.210938 10.058594 -4.382812 10.058594 -4.550781 Z M 5.421875 -8.03125 C 7.058594 -8.03125 8.300781 -7.007812 8.609375 -5.371094 L 2.214844 -5.371094 C 2.507812 -6.972656 3.75 -8.03125 5.421875 -8.03125 Z M 5.421875 -8.03125 "/></g></g></g><g fill="#d1212e" fill-opacity="1"><g transform="translate(299.671031, 148.778916)"><g><path d="M 5.507812 0.203125 C 7.6875 0.203125 9.445312 -1.109375 10.007812 -3.136719 L 8.542969 -3.136719 C 7.980469 -1.910156 6.851562 -1.195312 5.507812 -1.195312 C 3.632812 -1.195312 2.199219 -2.675781 2.199219 -4.601562 C 2.199219 -6.511719 3.613281 -7.996094 5.507812 -7.996094 C 6.871094 -7.996094 8.011719 -7.28125 8.542969 -6.085938 L 9.992188 -6.085938 C 9.425781 -8.097656 7.707031 -9.394531 5.507812 -9.394531 C 2.777344 -9.394531 0.714844 -7.347656 0.714844 -4.601562 C 0.714844 -1.859375 2.777344 0.203125 5.507812 0.203125 Z M 5.507812 0.203125 "/></g></g></g><g fill="#d1212e" fill-opacity="1"><g transform="translate(310.562253, 148.778916)"><g><path d="M 6.050781 -9.394531 C 4.722656 -9.394531 3.613281 -8.847656 2.898438 -7.945312 L 2.898438 -12.480469 L 1.449219 -12.480469 L 1.449219 0 L 2.898438 0 L 2.898438 -5.011719 C 2.898438 -6.734375 4.109375 -8.082031 5.695312 -8.082031 C 7.28125 -8.082031 8.167969 -7.023438 8.167969 -5.164062 L 8.167969 0 L 9.613281 0 L 9.613281 -5.507812 C 9.613281 -7.894531 8.25 -9.394531 6.050781 -9.394531 Z M 6.050781 -9.394531 "/></g></g></g><g fill="#d1212e" fill-opacity="1"><g transform="translate(321.828445, 148.778916)"><g><path d="M 6.050781 -9.394531 C 4.636719 -9.394531 3.460938 -8.78125 2.761719 -7.757812 L 2.488281 -9.207031 L 1.449219 -9.207031 L 1.449219 0 L 2.898438 0 L 2.898438 -5.011719 C 2.898438 -6.734375 4.109375 -8.082031 5.695312 -8.082031 C 7.28125 -8.082031 8.167969 -7.023438 8.167969 -5.164062 L 8.167969 0 L 9.613281 0 L 9.613281 -5.507812 C 9.613281 -7.757812 8.25 -9.394531 6.050781 -9.394531 Z M 6.050781 -9.394531 "/></g></g></g><g fill="#d1212e" fill-opacity="1"><g transform="translate(333.094637, 148.778916)"><g><path d="M 5.609375 0.203125 C 8.386719 0.203125 10.484375 -1.839844 10.484375 -4.601562 C 10.484375 -7.347656 8.386719 -9.394531 5.609375 -9.394531 C 2.8125 -9.394531 0.714844 -7.363281 0.714844 -4.601562 C 0.714844 -1.839844 2.8125 0.203125 5.609375 0.203125 Z M 5.609375 -1.195312 C 3.632812 -1.195312 2.199219 -2.625 2.199219 -4.601562 C 2.199219 -6.5625 3.632812 -7.996094 5.609375 -7.996094 C 7.570312 -7.996094 9 -6.5625 9 -4.585938 C 9 -2.625 7.570312 -1.195312 5.609375 -1.195312 Z M 5.609375 -1.195312 "/></g></g></g><g fill="#d1212e" fill-opacity="1"><g transform="translate(344.650568, 148.778916)"><g><path d="M 1.449219 0 L 2.898438 0 L 2.898438 -12.480469 L 1.449219 -12.480469 Z M 1.449219 0 "/></g></g></g><g fill="#d1212e" fill-opacity="1"><g transform="translate(349.337821, 148.778916)"><g><path d="M 5.609375 0.203125 C 8.386719 0.203125 10.484375 -1.839844 10.484375 -4.601562 C 10.484375 -7.347656 8.386719 -9.394531 5.609375 -9.394531 C 2.8125 -9.394531 0.714844 -7.363281 0.714844 -4.601562 C 0.714844 -1.839844 2.8125 0.203125 5.609375 0.203125 Z M 5.609375 -1.195312 C 3.632812 -1.195312 2.199219 -2.625 2.199219 -4.601562 C 2.199219 -6.5625 3.632812 -7.996094 5.609375 -7.996094 C 7.570312 -7.996094 9 -6.5625 9 -4.585938 C 9 -2.625 7.570312 -1.195312 5.609375 -1.195312 Z M 5.609375 -1.195312 "/></g></g></g><g fill="#d1212e" fill-opacity="1"><g transform="translate(360.893752, 148.778916)"><g><path d="M 9.050781 -9.207031 L 8.832031 -7.773438 C 7.996094 -8.78125 6.734375 -9.394531 5.25 -9.394531 C 2.695312 -9.394531 0.734375 -7.398438 0.734375 -4.839844 C 0.734375 -2.265625 2.695312 -0.289062 5.25 -0.289062 C 6.613281 -0.289062 7.792969 -0.800781 8.609375 -1.652344 L 8.609375 -1.089844 C 8.609375 0.953125 7.347656 2.164062 5.507812 2.164062 C 4.175781 2.164062 3.015625 1.515625 2.609375 0.375 L 1.160156 0.375 C 1.652344 2.320312 3.257812 3.496094 5.507812 3.496094 C 8.320312 3.496094 10.023438 1.6875 10.023438 -1.277344 L 10.023438 -9.1875 Z M 5.40625 -1.671875 C 3.5625 -1.671875 2.199219 -3.035156 2.199219 -4.839844 C 2.199219 -6.648438 3.5625 -8.011719 5.40625 -8.011719 C 7.246094 -8.011719 8.59375 -6.664062 8.59375 -4.839844 C 8.59375 -3.015625 7.261719 -1.671875 5.40625 -1.671875 Z M 5.40625 -1.671875 "/></g></g></g><g fill="#d1212e" fill-opacity="1"><g transform="translate(372.705343, 148.778916)"><g><path d="M 8.183594 -9.207031 L 5.097656 -2.234375 L 1.824219 -9.207031 L 0.253906 -9.207031 L 4.347656 -0.613281 L 4.023438 0.0664062 C 3.273438 1.601562 2.847656 1.976562 1.601562 1.976562 L 0.871094 1.976562 L 0.871094 3.289062 L 1.738281 3.289062 C 3.476562 3.289062 4.347656 2.574219 5.335938 0.390625 L 9.734375 -9.207031 Z M 8.183594 -9.207031 "/></g></g></g></svg>